<?xml version="1.0" encoding="UTF-8"?><svg id="Layer_2" xmlns="http://www.w3.org/2000/svg" viewBox="0 0 1459.85 399.86"><defs><style>.cls-1{fill:#181818;}.cls-1,.cls-2,.cls-3{stroke-width:0px;}.cls-2{fill:#000;}.cls-3{fill:#626262;}.cls-4{fill:none;stroke:#181818;stroke-width:3px;}</style></defs><g id="Layer_1-2"><path class="cls-2" d="M521.34,91.11h-187.26c-8.97-14.79-19.73-28.38-31.95-40.49h259.71l-40.49,40.49Z"/><path class="cls-2" d="M571.95,40.49h-280.81c-20.89-17.93-45.35-31.84-72.15-40.49h393.46l-40.49,40.49Z"/><path class="cls-2" d="M389.74,248.02h-30.84c3.06-13.07,4.9-26.61,5.39-40.49h65.94l-40.49,40.49Z"/><path class="cls-2" d="M440.35,197.4h-75.94c-.17-13.86-1.67-27.4-4.4-40.49h120.83l-40.49,40.49Z"/><path class="cls-2" d="M154.38,399.86c110.42,0,199.93-89.51,199.93-199.93S264.79,0,154.38,0h-63.27l-40.49,40.49h103.76c88.06,0,159.44,71.38,159.44,159.44s-71.38,159.44-159.44,159.44H40.49v-96.17L0,303.69v96.17h154.38Z"/><path class="cls-2" d="M50.62,253.08v96.17h103.76c82.47,0,149.32-66.85,149.32-149.32S236.84,50.62,154.38,50.62H40.49L0,91.11h154.38c60.11,0,108.82,48.72,108.82,108.82s-48.72,108.82-108.82,108.82h-63.27v-96.17l-40.49,40.49Z"/><path class="cls-2" d="M685.16,65.79c13.34,0,24.99,2.64,34.96,7.93,9.97,5.29,17.65,12.73,23.07,22.35,5.52,9.49,8.29,20.49,8.29,32.98s-2.77,23.37-8.29,32.98c-5.42,9.62-13.16,17.06-23.26,22.35-9.97,5.29-21.56,7.93-34.77,7.93h-47.4v-126.51h47.4ZM683.17,165.63c11.65,0,20.73-3.19,27.22-9.55,6.48-6.36,9.73-15.37,9.73-27.03s-3.25-20.73-9.73-27.21c-6.49-6.49-15.56-9.73-27.22-9.73h-14.6v73.53h14.6Z"/><path class="cls-2" d="M788.7,90.49v25.59h41.26v23.79h-41.26v27.75h46.67v24.69h-77.49v-126.51h77.49v24.69h-46.67Z"/><path class="cls-2" d="M839.34,128.87c0-12.5,2.7-23.61,8.11-33.34,5.4-9.86,12.91-17.49,22.52-22.89,9.73-5.53,20.73-8.29,32.98-8.29,15.02,0,27.88,3.96,38.57,11.89,10.69,7.93,17.84,18.74,21.45,32.43h-33.89c-2.52-5.29-6.13-9.31-10.81-12.07-4.57-2.76-9.8-4.15-15.68-4.15-9.49,0-17.18,3.3-23.07,9.91-5.88,6.61-8.83,15.44-8.83,26.5s2.95,19.88,8.83,26.5c5.88,6.61,13.58,9.91,23.07,9.91,5.88,0,11.11-1.38,15.68-4.14,4.68-2.76,8.29-6.78,10.81-12.07h33.89c-3.61,13.69-10.76,24.51-21.45,32.44-10.69,7.81-23.55,11.72-38.57,11.72-12.25,0-23.25-2.71-32.98-8.11-9.62-5.53-17.12-13.16-22.52-22.89-5.42-9.73-8.11-20.84-8.11-33.34Z"/><path class="cls-2" d="M1001.84,65.79v126.51h-30.81v-126.51h30.81Z"/><path class="cls-2" d="M1059.14,193.57c-9.25,0-17.54-1.51-24.86-4.5-7.34-3-13.22-7.45-17.66-13.34-4.33-5.88-6.61-12.98-6.85-21.27h32.8c.48,4.68,2.1,8.29,4.86,10.81,2.77,2.4,6.36,3.61,10.82,3.61s8.16-1.02,10.81-3.06c2.65-2.16,3.97-5.11,3.97-8.83,0-3.13-1.09-5.71-3.25-7.74-2.04-2.04-4.62-3.72-7.74-5.05-3.01-1.32-7.33-2.82-12.98-4.5-8.16-2.52-14.83-5.05-19.99-7.57-5.18-2.52-9.62-6.25-13.34-11.17-3.73-4.92-5.59-11.35-5.59-19.28,0-11.77,4.26-20.97,12.79-27.57,8.53-6.73,19.65-10.1,33.34-10.1s25.17,3.37,33.7,10.1c8.53,6.61,13.1,15.86,13.7,27.75h-33.34c-.24-4.09-1.75-7.28-4.5-9.55-2.77-2.4-6.31-3.61-10.63-3.61-3.73,0-6.73,1.02-9.02,3.06-2.28,1.92-3.42,4.75-3.42,8.47,0,4.09,1.92,7.26,5.77,9.55,3.83,2.28,9.84,4.75,18.02,7.39,8.16,2.76,14.78,5.4,19.82,7.93,5.17,2.52,9.62,6.19,13.34,11,3.73,4.81,5.59,11,5.59,18.56s-1.86,13.75-5.59,19.64c-3.59,5.88-8.88,10.58-15.85,14.06-6.97,3.48-15.2,5.23-24.69,5.23h0Z"/><path class="cls-2" d="M1144.24,65.79v126.51h-30.81v-126.51h30.81Z"/><path class="cls-2" d="M1215.59,193.57c-11.89,0-22.83-2.76-32.8-8.29-9.84-5.53-17.71-13.21-23.61-23.07-5.76-9.97-8.64-21.14-8.64-33.52s2.89-23.49,8.64-33.34c5.9-9.86,13.77-17.54,23.61-23.07,9.97-5.53,20.9-8.29,32.8-8.29s22.76,2.76,32.62,8.29c9.97,5.53,17.78,13.21,23.42,23.07,5.77,9.86,8.66,20.97,8.66,33.34s-2.89,23.55-8.66,33.52c-5.76,9.86-13.56,17.54-23.42,23.07-9.86,5.53-20.73,8.29-32.62,8.29ZM1215.59,165.45c10.1,0,18.15-3.37,24.16-10.1,6.13-6.73,9.19-15.61,9.19-26.67s-3.06-20.07-9.19-26.67c-6.01-6.73-14.06-10.1-24.16-10.1s-18.37,3.3-24.51,9.91c-6,6.61-9.01,15.55-9.01,26.85s3.01,20.12,9.01,26.85c6.14,6.61,14.3,9.91,24.51,9.91v.03Z"/><path class="cls-2" d="M1399.79,192.3h-30.81l-51.54-78.04v78.04h-30.83v-126.51h30.83l51.54,78.39v-78.39h30.81v126.51Z"/><path class="cls-3" d="M695,232.82v10.76h-44.02v34.14h35.74v10.76h-35.74v45.62h-13.22v-101.27h57.25Z"/><path class="cls-3" d="M748.16,335.1c-9.39,0-17.97-2.18-25.71-6.54-7.76-4.45-13.91-10.6-18.45-18.45-4.47-7.95-6.69-16.85-6.69-26.74s2.23-18.74,6.69-26.58c4.54-7.95,10.69-14.1,18.45-18.45,7.74-4.45,16.32-6.68,25.71-6.68s18.11,2.23,25.86,6.68c7.74,4.35,13.84,10.46,18.3,18.31,4.47,7.85,6.69,16.76,6.69,26.74s-2.23,18.89-6.69,26.74c-4.45,7.85-10.55,14-18.3,18.45-7.76,4.35-16.37,6.54-25.86,6.54h0ZM748.16,323.62c7.07,0,13.41-1.64,19.03-4.93,5.72-3.29,10.17-8,13.36-14.1,3.3-6.1,4.95-13.17,4.95-21.21s-1.65-15.21-4.95-21.21c-3.19-6.1-7.59-10.81-13.21-14.1-5.62-3.29-12.02-4.93-19.18-4.93s-13.57,1.65-19.18,4.93c-5.62,3.29-10.07,7.98-13.36,14.1-3.19,6.01-4.8,13.07-4.8,21.21s1.61,15.11,4.8,21.21c3.29,6.1,7.74,10.79,13.36,14.1,5.72,3.29,12.11,4.93,19.18,4.93Z"/><path class="cls-3" d="M820.68,232.82v64.07c0,9.01,2.18,15.69,6.54,20.06,4.46,4.37,10.6,6.54,18.45,6.54s13.81-2.18,18.16-6.54c4.45-4.35,6.68-11.05,6.68-20.06v-64.07h13.23v63.93c0,8.43-1.7,15.55-5.09,21.36-3.39,5.72-7.98,9.97-13.8,12.78-5.71,2.81-12.15,4.21-19.32,4.21s-13.65-1.4-19.46-4.21c-5.72-2.81-10.27-7.07-13.67-12.78-3.29-5.81-4.93-12.93-4.93-21.36v-63.93h13.22Z"/><path class="cls-3" d="M976.69,334.09h-13.23l-53.17-80.63v80.63h-13.22v-101.41h13.22l53.17,80.49v-80.49h13.23v101.41Z"/><path class="cls-3" d="M1022.04,232.82c11.03,0,20.57,2.09,28.62,6.25,8.14,4.06,14.34,9.93,18.59,17.58,4.37,7.66,6.54,16.67,6.54,27.03s-2.18,19.37-6.54,27.03c-4.25,7.56-10.45,13.36-18.59,17.44-8.05,3.97-17.59,5.96-28.62,5.96h-31.53v-101.27h31.53ZM1022.04,323.18c13.07,0,23.05-3.44,29.93-10.31,6.88-6.97,10.31-16.7,10.31-29.21s-3.48-22.42-10.45-29.5c-6.88-7.07-16.81-10.6-29.79-10.6h-18.31v79.62h18.31Z"/><path class="cls-3" d="M1137.83,334.09l-24.12-41.4h-15.98v41.4h-13.22v-101.27h32.7c7.64,0,14.08,1.3,19.32,3.92,5.33,2.62,9.3,6.15,11.91,10.6,2.62,4.45,3.92,9.54,3.92,15.25,0,6.97-2.02,13.12-6.1,18.45-3.97,5.33-9.97,8.86-18.02,10.6l25.43,42.43h-15.84ZM1097.73,282.07h19.47c7.16,0,12.54-1.75,16.12-5.23,3.58-3.58,5.38-8.33,5.38-14.23s-1.8-10.65-5.38-13.95c-3.48-3.29-8.86-4.93-16.12-4.93h-19.47v38.35h0Z"/><path class="cls-3" d="M1235.09,232.82l-32.97,63.05v38.21h-13.22v-38.21l-33.13-63.05h14.68l24.98,51.29,24.99-51.29h14.68Z"/><path class="cls-4" d="M1440.01,67.7c10.14,0,18.35,8.21,18.35,18.35s-8.21,18.35-18.35,18.35-18.35-8.21-18.35-18.35,8.21-18.35,18.35-18.35Z"/><path class="cls-1" d="M1443.22,96.17l-4.47-7.88h-1.92v7.88h-4.05v-20.25h7.59c1.57,0,2.9.28,4,.84,1.12.54,1.92,1.29,2.47,2.23.57.92.85,1.97.85,3.14,0,1.34-.39,2.54-1.16,3.63-.77,1.06-1.92,1.8-3.45,2.2l4.85,8.21h-4.7ZM1436.83,85.24h3.4c1.1,0,1.92-.27,2.45-.78.54-.54.82-1.29.82-2.23s-.28-1.65-.82-2.15c-.53-.52-1.35-.78-2.45-.78h-3.4v5.95Z"/></g></svg>